<svg xmlns="http://www.w3.org/2000/svg" xmlns:xlink="http://www.w3.org/1999/xlink" fill="none" version="1.1" width="236" height="77" viewBox="0 0 236 77"><defs><clipPath id="master_svg0_13_3808"><rect x="0" y="0" width="236" height="77" rx="0"/></clipPath><linearGradient x1="155" y1="0" x2="155" y2="75.87182998657227" gradientUnits="userSpaceOnUse" id="master_svg1_13_3680"><stop offset="0%" stop-color="#DAF1FF" stop-opacity="1"/><stop offset="100%" stop-color="#40D5FF" stop-opacity="1"/></linearGradient></defs><g clip-path="url(#master_svg0_13_3808)"><g><path d="M83.45,61.268L91.226,43.502L87.824,43.61L87.716,40.478L85.934,42.314L77.348,34.862L95.492,16.07L104.078,23.576L90.956,37.13L116.55199999999999,36.212L104.024,21.902L109.424,17.15L125.24600000000001,35.186L119.95400000000001,40.046L117.416,37.13L117.416,63.968L104.024,63.428L103.754,56.948L108.074,57.164L108.074,42.908L102.782,43.124L93.548,64.346L83.45,61.268ZM131.45600000000002,22.226L144.308,22.226L148.736,14.774L159.59,20.066L158.29399999999998,22.226L178.76,22.226L178.76,28.706L154.56799999999998,28.706L149.6,37.238L155.054,37.076L155.054,31.406L165.85399999999998,31.406L165.85399999999998,36.698L177.356,36.266L177.356,58.244L167.474,57.704L167.312,52.304L169.796,52.466L169.796,42.746L165.85399999999998,42.962L165.85399999999998,64.238L155.054,64.238L155.054,43.556L151.058,43.772L151.058,58.19L143.498,58.19L143.498,47.714L141.986,50.306L131.29399999999998,44.42L140.52800000000002,28.706L131.45600000000002,28.706L131.45600000000002,22.226ZM185.402,24.548L205.868,24.548L204.248,17.474L216.02,15.044L218.342,24.548L221.636,24.548L218.828,18.23L226.766,15.152L230.168,22.766L225.578,24.548L232.49,24.548L232.49,31.136L219.962,31.136L225.632,54.14L230.708,52.52L232.76,59.162L215.156,64.4L207.434,31.136L185.402,31.136L185.402,24.548ZM186.15800000000002,36.32L208.46,36.32L208.46,42.908L202.358,42.908L202.358,55.706L210.404,55.004L210.89,61.538L185.618,63.644L185.132,57.11L192.476,56.516L192.476,42.908L186.15800000000002,42.908L186.15800000000002,36.32Z" fill="url(#master_svg1_13_3680)" fill-opacity="1"/></g><g><g><path d="M0,59.1556L28.6027,77L58,59.1556L58,22.25L28.6027,4L0,22.25L0,59.1556Z" fill="#2A98CC" fill-opacity="1"/></g><g><path d="M12.712328910827637,50.9553567565918L29.168728910827635,60.9560567565918L46.08222891082764,50.9553567565918L46.08222891082764,30.2719567565918L29.168728910827635,20.043956756591797L12.712328910827637,30.2719567565918L12.712328910827637,50.9553567565918Z" fill="#FFFFFF" fill-opacity="1"/></g><g transform="matrix(0.833264946937561,0.5528739094734192,-0.5454973578453064,0.8381125926971436,12.37926294505558,3.194950370291618)"><path d="M0.7949569821357727,21.950550079345703L34.167056982135776,21.950550079345703Q34.216256982135775,21.950550079345703,34.26455698213577,21.960157079345702Q34.31285698213577,21.969765079345702,34.358356982135774,21.988610079345705Q34.40385698213577,22.007456079345705,34.444856982135775,22.0348150793457Q34.485756982135776,22.062175079345703,34.52055698213577,22.0969970793457Q34.55535698213577,22.131819079345703,34.58275698213577,22.1727650793457Q34.61015698213577,22.213711079345703,34.628956982135776,22.259208079345704Q34.64785698213577,22.304705079345702,34.65745698213577,22.3530049793457Q34.667056982135776,22.401304379345703,34.667056982135776,22.450550079345703Q34.667056982135776,22.499795779345703,34.65745698213577,22.548095179345705Q34.64785698213577,22.596395079345704,34.628956982135776,22.641892079345702Q34.61015698213577,22.687389079345703,34.58275698213577,22.728335079345705Q34.55535698213577,22.769281079345703,34.52055698213577,22.804103079345705Q34.485756982135776,22.838925079345703,34.444856982135775,22.866285079345705Q34.40385698213577,22.8936440793457,34.358356982135774,22.9124900793457Q34.31285698213577,22.931335079345704,34.26455698213577,22.940943079345704Q34.216256982135775,22.950550079345703,34.167056982135776,22.950550079345703L0.7949569821357727,22.950550079345703Q0.7457112821357728,22.950550079345703,0.6974118821357727,22.940943079345704Q0.6491119821357727,22.931335079345704,0.6036149821357727,22.9124900793457Q0.5581179821357727,22.8936440793457,0.5171719821357728,22.866285079345705Q0.4762259821357727,22.838925079345703,0.4414039821357727,22.804103079345705Q0.4065819821357727,22.769281079345703,0.3792219821357727,22.728335079345705Q0.3518629821357727,22.687389079345703,0.3330169821357727,22.641892079345702Q0.3141719821357727,22.596395079345704,0.3045639821357727,22.548095179345705Q0.2949569821357727,22.499795779345703,0.2949569821357727,22.450550079345703Q0.2949569821357727,22.401304379345703,0.3045639821357727,22.3530049793457Q0.3141719821357727,22.304705079345702,0.3330169821357727,22.259208079345704Q0.3518629821357727,22.213711079345703,0.3792219821357727,22.1727650793457Q0.4065819821357727,22.131819079345703,0.4414039821357727,22.0969970793457Q0.4762259821357727,22.062175079345703,0.5171719821357728,22.0348150793457Q0.5581179821357727,22.007456079345705,0.6036149821357727,21.988610079345705Q0.6491119821357727,21.969765079345702,0.6974118821357727,21.960157079345702Q0.7457112821357728,21.950550079345703,0.7949569821357727,21.950550079345703Z" fill-rule="evenodd" fill="#C9E3EF" fill-opacity="1"/></g><g transform="matrix(-0.8403357267379761,0.5420663952827454,-0.5347133278846741,-0.845033586025238,117.28057588383763,10.414637652215788)"><path d="M57.204559326171875,21.951248168945312L91.24075932617188,21.951248168945312Q91.28995932617187,21.951248168945312,91.33825932617188,21.96085516894531Q91.38655932617188,21.97046316894531,91.43205932617187,21.989308168945314Q91.47755932617187,22.008154168945314,91.51845932617186,22.03551316894531Q91.55945932617188,22.062873168945313,91.59425932617188,22.09769516894531Q91.62905932617187,22.132517168945313,91.65645932617187,22.17346316894531Q91.68375932617187,22.214409168945313,91.70265932617187,22.259906168945314Q91.72145932617187,22.30540316894531,91.73105932617187,22.35370306894531Q91.74075932617188,22.402002468945312,91.74075932617188,22.451248168945312Q91.74075932617188,22.500493868945313,91.73105932617187,22.548793268945314Q91.72145932617187,22.597093168945314,91.70265932617187,22.64259016894531Q91.68375932617187,22.688087168945312,91.65645932617187,22.729033168945314Q91.62905932617187,22.769979168945312,91.59425932617188,22.804801168945314Q91.55945932617188,22.839623168945312,91.51845932617186,22.866983168945314Q91.47755932617187,22.89434216894531,91.43205932617187,22.91318816894531Q91.38655932617188,22.932033168945313,91.33825932617188,22.941641168945313Q91.28995932617187,22.951248168945312,91.24075932617188,22.951248168945312L57.204559326171875,22.951248168945312Q57.155313626171875,22.951248168945312,57.10701422617188,22.941641168945313Q57.058714326171874,22.932033168945313,57.013217326171876,22.91318816894531Q56.96772032617187,22.89434216894531,56.92677432617187,22.866983168945314Q56.885828326171875,22.839623168945312,56.85100632617188,22.804801168945314Q56.81618432617187,22.769979168945312,56.78882432617188,22.729033168945314Q56.76146532617187,22.688087168945312,56.74261932617188,22.64259016894531Q56.72377432617188,22.597093168945314,56.71416632617188,22.548793268945314Q56.704559326171875,22.500493868945313,56.704559326171875,22.451248168945312Q56.704559326171875,22.402002468945312,56.71416632617188,22.35370306894531Q56.72377432617188,22.30540316894531,56.74261932617188,22.259906168945314Q56.76146532617187,22.214409168945313,56.78882432617188,22.17346316894531Q56.81618432617187,22.132517168945313,56.85100632617188,22.09769516894531Q56.885828326171875,22.062873168945313,56.92677432617187,22.03551316894531Q56.96772032617187,22.008154168945314,57.013217326171876,21.989308168945314Q57.058714326171874,21.97046316894531,57.10701422617188,21.96085516894531Q57.155313626171875,21.951248168945312,57.204559326171875,21.951248168945312Z" fill-rule="evenodd" fill="#C9E3EF" fill-opacity="1"/></g><g transform="matrix(0,1,-1,0,69.5046157836914,12.297584533691406)"><path d="M28.603515625,40.401100158691406L63.900215625,40.401100158691406Q63.949415625,40.401100158691406,63.997715625,40.41070715869141Q64.046015625,40.42031515869141,64.091515625,40.43916015869141Q64.137015625,40.458006158691404,64.178015625,40.48536515869141Q64.218915625,40.5127251586914,64.253715625,40.54754715869141Q64.288615625,40.58236915869141,64.315915625,40.623315158691405Q64.343315625,40.6642611586914,64.362115625,40.70975815869141Q64.381015625,40.755255158691405,64.39061562500001,40.80355505869141Q64.400215625,40.851854458691406,64.400215625,40.901100158691406Q64.400215625,40.950345858691406,64.39061562500001,40.998645258691404Q64.381015625,41.04694515869141,64.362115625,41.092442158691405Q64.343315625,41.13793915869141,64.315915625,41.17888515869141Q64.288615625,41.219831158691406,64.253715625,41.254653158691404Q64.218915625,41.28947515869141,64.178015625,41.316835158691404Q64.137015625,41.34419415869141,64.091515625,41.363040158691405Q64.046015625,41.381885158691404,63.997715625,41.391493158691404Q63.949415625,41.401100158691406,63.900215625,41.401100158691406L28.603515625,41.401100158691406Q28.554269925,41.401100158691406,28.505970525,41.391493158691404Q28.457670625,41.381885158691404,28.412173625,41.363040158691405Q28.366676625,41.34419415869141,28.325730625,41.316835158691404Q28.284784625,41.28947515869141,28.249962625,41.254653158691404Q28.215140625,41.219831158691406,28.187780625,41.17888515869141Q28.160421625,41.13793915869141,28.141575625,41.092442158691405Q28.122730625,41.04694515869141,28.113122625,40.998645258691404Q28.103515625,40.950345858691406,28.103515625,40.901100158691406Q28.103515625,40.851854458691406,28.113122625,40.80355505869141Q28.122730625,40.755255158691405,28.141575625,40.70975815869141Q28.160421625,40.6642611586914,28.187780625,40.623315158691405Q28.215140625,40.58236915869141,28.249962625,40.54754715869141Q28.284784625,40.5127251586914,28.325730625,40.48536515869141Q28.366676625,40.458006158691404,28.412173625,40.43916015869141Q28.457670625,40.42031515869141,28.505970525,40.41070715869141Q28.554269925,40.401100158691406,28.603515625,40.401100158691406Z" fill-rule="evenodd" fill="#C9E3EF" fill-opacity="1"/></g></g></g></svg>