<svg xmlns="http://www.w3.org/2000/svg" xmlns:xlink="http://www.w3.org/1999/xlink" fill="none" version="1.1" width="224" height="31" viewBox="0 0 224 31"><g><g><path d="M25.859999,24.216L30.084,16.752L27.828,16.752L28.164,14.448L44.58,14.448L43.428,22.632Q43.332,23.304,42.792,23.76Q42.251999999999995,24.216,41.556,24.216L36.804,24.216L38.964,21.984L39.684,16.752L34.644,16.752L30.42,24.216L25.859999,24.216ZM30.996000000000002,13.776L26.436,13.776L31.5,7.488L31.044,6.936L36.516,6.936L30.996000000000002,13.776ZM42.9,6.936L46.5,13.776L41.94,13.776L38.34,6.936L42.9,6.936ZM61.548,11.496L61.356,12.864L67.28399999999999,12.864L66.156,20.808Q66.06,21.504,65.532,21.972Q65.00399999999999,22.44,64.30799999999999,22.44L60.924,22.44L62.028,21.072L62.868,15.144L61.02,15.144L59.748,24.216L55.644,24.216L56.916,15.144L55.116,15.144L54.084,22.44L49.980000000000004,22.44L50.844,16.272L47.652,16.272L52.044,10.584L48.444,10.584L48.78,8.304L53.82,8.304L54.444,7.488L53.988,6.936L59.46,6.936L58.38,8.304L68.844,8.304L68.50800000000001,10.584L56.628,10.584L54.852000000000004,12.864L57.252,12.864L57.444,11.496L61.548,11.496ZM82.932,24.216L81.06,11.736L71.02799999999999,11.736L71.34,9.456L80.72399999999999,9.456L80.46000000000001,7.56L79.908,6.936L84.924,6.936L85.28399999999999,9.456L90.948,9.456L90.636,11.736L85.62,11.736L87.084,21.528L88.788,21.528L89.844,20.616L89.316,24.216L82.932,24.216ZM79.884,23.352L69.708,24.216L70.044,21.984L72.78,21.744L73.668,15.6L70.932,15.6L71.244,13.32L80.82,13.32L80.50800000000001,15.6L78.22800000000001,15.6L77.412,21.336L80.196,21.072L79.884,23.352ZM86.02799999999999,8.76L85.836,6.936L90.396,6.936L90.588,8.76L86.02799999999999,8.76ZM102.564,19.704L102.948,21.528L105.156,21.528L107.052,18.792L97.14,18.792L96.9,19.248L92.34,19.248L93.9,16.272L93.324,15.6L98.796,15.6L98.316,16.512L111.876,16.512L111.444,19.704L108.588,23.808L91.716,23.808L92.028,21.528L98.388,21.528L98.004,19.704L102.564,19.704ZM99.516,7.848L113.1,7.848L112.644,11.04L109.788,15.144L93.372,15.144L93.708,12.864L99.372,12.864L98.964,11.04L103.524,11.04L103.932,12.864L106.38,12.864L108.276,10.128L98.34,10.128L98.124,10.584L93.564,10.584L95.1,7.608L94.524,6.936L99.996,6.936L99.516,7.848ZM116.052,14.688L118.452,11.28L115.62,11.28L115.956,9L120.06,9L120.78,7.968L120.276,7.392L126.204,7.392L125.076,9L135.108,9L134.772,11.28L123.468,11.28L121.068,14.688L123.804,14.688L124.188,11.952L128.748,11.952L128.364,14.688L133.38,14.688L133.06799999999998,16.968L128.05200000000002,16.968L127.86,18.336L134.244,18.336L133.93200000000002,20.616L127.524,20.616L127.092,23.808L122.532,23.808L122.964,20.616L113.868,20.616L114.18,18.336L123.3,18.336L123.492,16.968L115.74,16.968L116.052,14.688ZM150.66,9.696L155.34,9.696L153.468,22.944Q153.396,23.472,152.976,23.82Q152.55599999999998,24.168,152.00400000000002,24.168L148.164,24.168L149.844,22.416L151.332,11.856L150.012,11.856L146.34,24.192L142.26,24.192L145.98000000000002,11.856L143.748,11.856L144.06,9.696L146.628,9.696L147.276,7.56L146.772,6.984L151.476,6.984L150.66,9.696ZM138.156,10.944L138.588,7.944L137.796,7.032L142.836,7.032L142.284,10.944L143.1,10.944L142.788,13.248L141.94799999999998,13.248L140.436,24.168L136.308,24.168L137.844,13.248L137.02800000000002,13.248L137.34,10.944L138.156,10.944ZM145.332,13.152L143.364,19.2L141.204,19.2L143.172,13.152L145.332,13.152ZM156.852,13.152L156.444,19.152L154.572,19.152L154.98,13.152L156.852,13.152ZM166.428,7.536L165.924,6.936L170.244,6.936L169.74,8.76L179.1,8.76L178.788,11.04L173.748,11.04L173.388,13.56L177.516,13.56L177.204,15.816L173.076,15.816L172.716,18.336L177.3,18.336L176.988,20.616L172.404,20.616L171.9,24.216L167.556,24.216L169.404,11.04L169.116,11.04L168.372,13.776L164.724,13.776L166.428,7.536ZM164.628,9.672L162.564,24.216L158.22,24.216L160.164,10.56L158.748,10.824L159.132,8.088L165.012,6.936L164.628,9.672ZM182.82,10.032L183.156,7.68L182.58,6.984L187.308,6.984L186.876,10.032L187.692,10.032L187.38,12.168L186.564,12.168L186.204,14.76L186.828,14.568L186.468,17.064L185.844,17.256L185.1,22.608Q185.004,23.304,184.476,23.748Q183.948,24.192,183.276,24.192L179.556,24.192L181.14,22.032L181.62,18.6L180.276,19.008L180.636,16.488L181.98,16.08L182.532,12.168L181.26,12.168L181.572,10.032L182.82,10.032ZM190.812,24.216L191.844,16.968L187.476,16.968L187.788,14.688L192.156,14.688L192.42,12.864L196.788,12.864L196.524,14.688L200.892,14.688L200.58,16.968L196.212,16.968L195.18,24.216L190.812,24.216ZM197.556,13.776L196.02,10.584L197.772,10.584L197.916,9.672L192.228,9.672L192.084,10.584L193.812,10.584L191.436,13.776L187.932,13.776L189.972,11.04L188.316,11.04L188.724,8.064L188.172,7.392L201.948,7.392L201.444,11.04L199.74,11.04L201.036,13.776L197.556,13.776ZM196.668,24.216L196.74,17.664L199.836,17.664L199.788,24.216L196.668,24.216ZM186.228,24.216L188.076,17.664L191.172,17.664L189.324,24.216L186.228,24.216ZM204.036,17.832L207.324,16.488L204.18,16.488L204.348,15.144L206.1,14.424L203.604,14.424L204.108,10.824L211.74,10.824L211.86,10.104L204.636,10.104L204.948,7.824L212.124,7.824L211.38,6.96L216.492,6.96L216.372,7.824L223.212,7.824L222.9,10.104L216.036,10.104L215.94,10.824L223.308,10.824L222.804,14.448L218.844,14.448L219.06,12.864L207.708,12.864L207.564,13.824L208.788,13.32L213.828,13.32L210.444,14.664L221.82,14.664L221.58,16.488L212.34,16.488L209.028,17.832L217.02,17.832L216.876,16.944L221.436,16.944L221.94,20.136L217.38,20.136L217.308,19.656L214.692,19.656L214.212,23.064Q214.14,23.544,213.636,23.844Q213.132,24.144,212.436,24.144L208.14,24.144L210.18,22.608L210.588,19.656L203.772,19.656L204.036,17.832ZM221.436,23.76L217.332,23.76L215.94,20.568L220.044,20.568L221.436,23.76ZM206.412,23.784L202.308,23.784L205.044,20.592L209.124,20.592L206.412,23.784Z" fill="#D1F8FD" fill-opacity="1"/></g><g><g><ellipse cx="12" cy="15" rx="12" ry="12" fill="#B1FFFF" fill-opacity="1"/></g><g><path d="M11.9614,4C18.0596,4,23,8.923079999999999,23,15C23,21.0769,18.0596,26,11.9614,26C5.86316,25.9231,1,21,1,14.9231C1,8.84615,5.86316,4,11.9614,4Z" fill="#0E5061" fill-opacity="1"/></g><g><path d="M19,15L12,9.33333L5,15L5,12.66667L12,7L19,12.66667L19,15ZM17.25,20.3333L19,20.3333L19,22L5,22L5,20.3333L6.67045,20.3333L6.67045,14.83333L11.92046,10.66667L17.1705,14.83333L17.1705,20.3333L17.25,20.3333ZM14.625,15.33333Q14.54546,15.16667,14.38636,15.16667L12.875,15.16667L13.27273,13.16667C13.27273,13.08333,13.27273,12.91667,13.19318,12.91667C13.11364,12.83333,13.11364,12.83333,13.03409,12.83333Q12.954550000000001,12.83333,12.875,12.91667L12.79546,13L9.93182,16.58333C9.85227,16.66667,9.85227,16.75,9.93182,16.83333C9.93182,16.91667,10.01136,17,10.170449999999999,17L11.44318,17L10.72727,19.1667Q10.72727,19.3333,10.80682,19.4167C10.88636,19.5,10.965910000000001,19.5,11.045449999999999,19.5L11.204550000000001,19.5Q11.284089999999999,19.5,11.284089999999999,19.4167L14.70455,15.66667L14.625,15.33333Z" fill="#B0FEFE" fill-opacity="1"/></g></g></g></svg>